<?xml version="1.0" standalone="no"?>
<!DOCTYPE svg PUBLIC "-//W3C//DTD SVG 20010904//EN"
 "http://www.w3.org/TR/2001/REC-SVG-20010904/DTD/svg10.dtd">
<svg version="1.0" xmlns="http://www.w3.org/2000/svg"
 width="2401.000000pt" height="1923.000000pt" viewBox="0 0 2401.000000 1923.000000"
 preserveAspectRatio="xMidYMid meet">
<metadata>
Created by potrace 1.16, written by Peter Selinger 2001-2019
</metadata>
<g transform="translate(0.000000,1923.000000) scale(0.100000,-0.100000)"
fill="#000000" stroke="none">
<path d="M10310 18693 l-175 -3 0 -625 0 -625 200 0 200 0 -2 628 -3 627 -22
0 c-13 1 -102 -1 -198 -2z"/>
<path d="M10789 18686 c-2 -2 0 -94 4 -203 5 -109 6 -388 3 -621 l-5 -422 412
2 412 3 6 65 c4 36 8 99 10 140 l4 75 -228 -3 -227 -3 0 115 0 116 184 0 c102
0 187 3 189 8 3 4 7 63 8 132 l4 125 -192 -4 -193 -4 0 107 0 106 199 0 c141
0 202 3 207 12 4 6 9 67 12 135 l5 123 -405 0 c-223 0 -407 -2 -409 -4z"/>
<path d="M11817 18068 l3 -623 407 0 407 0 7 35 c4 19 10 84 13 144 l7 109
-231 -8 -230 -7 0 116 0 116 184 0 c113 0 187 4 191 10 3 6 9 66 12 135 l6
125 -196 -6 -197 -7 0 106 0 107 205 0 c156 0 207 3 209 13 3 6 7 67 10 135
l5 122 -407 0 -407 0 2 -622z"/>
<path d="M12838 18683 c-2 -5 -2 -286 0 -625 l3 -618 402 0 c221 0 407 4 413
8 7 4 14 62 19 146 l7 139 -226 -7 -226 -8 0 116 0 116 180 0 c213 0 195 -14
201 155 l4 110 -197 -4 -198 -4 0 107 0 106 204 0 c113 0 207 3 209 8 3 4 8
64 12 135 l7 127 -405 0 c-223 0 -407 -3 -409 -7z"/>
<path d="M10180 16825 c-157 -25 -299 -88 -427 -190 -135 -108 -225 -244 -279
-422 -24 -79 -27 -105 -28 -243 0 -167 10 -225 61 -350 44 -106 91 -178 171
-262 127 -133 275 -215 454 -252 98 -20 284 -21 377 -1 159 33 338 126 453
234 l61 57 -113 122 c-62 67 -115 122 -119 122 -3 0 -31 -20 -61 -45 -76 -63
-199 -122 -293 -141 -347 -70 -659 266 -583 626 72 341 420 509 731 353 58
-30 166 -113 188 -145 8 -13 17 -21 19 -18 3 3 56 68 118 144 l114 139 -45 40
c-217 194 -506 278 -799 232z"/>
<path d="M11850 16825 c-344 -54 -625 -301 -715 -630 -22 -82 -30 -281 -16
-375 56 -358 338 -646 701 -714 108 -21 308 -21 408 0 359 74 636 357 692 706
18 108 8 302 -19 396 -126 437 -563 693 -1051 617z m339 -360 c197 -65 341
-277 341 -500 0 -152 -53 -280 -159 -386 -99 -99 -215 -149 -346 -149 -278 0
-516 249 -515 539 1 262 205 492 460 520 69 8 152 -1 219 -24z"/>
<path d="M13200 15960 l0 -850 175 0 175 0 0 561 0 561 237 -476 238 -476 126
0 126 0 236 473 236 472 0 -557 1 -558 175 0 175 0 0 850 0 850 -214 0 -215 0
-257 -510 c-141 -281 -260 -507 -264 -503 -4 4 -122 234 -261 510 l-254 503
-217 0 -218 0 0 -850z"/>
<path d="M15490 15961 l0 -851 195 0 195 0 0 240 0 240 153 0 c403 1 565 46
706 195 108 116 151 239 151 429 0 194 -41 308 -150 416 -75 75 -155 121 -267
152 -74 21 -103 22 -530 26 l-453 3 0 -850z m768 519 c40 -5 92 -18 116 -28
100 -45 153 -144 144 -271 -6 -79 -32 -134 -87 -184 -64 -58 -117 -69 -348
-74 l-203 -5 0 286 0 286 153 0 c83 0 185 -5 225 -10z"/>
<path d="M17122 16238 c5 -641 3 -628 79 -783 89 -183 254 -303 481 -350 94
-20 307 -19 406 1 270 55 451 225 524 491 21 75 22 102 26 646 l4 567 -201 0
-200 0 -3 -562 c-3 -561 -3 -563 -26 -612 -57 -125 -160 -195 -298 -204 -165
-10 -304 66 -364 200 -35 80 -40 159 -40 676 l0 502 -196 0 -195 0 3 -572z"/>
<path d="M18830 16645 l0 -165 255 0 255 0 0 -685 0 -685 195 0 195 0 0 685 0
685 260 0 260 0 0 165 0 165 -710 0 -710 0 0 -165z"/>
<path d="M20470 15960 l0 -850 660 0 660 0 0 165 0 165 -465 0 -465 0 0 180 0
180 405 0 405 0 0 165 0 165 -405 0 -405 0 0 180 0 180 450 0 450 0 0 160 0
160 -645 0 -645 0 0 -850z"/>
<path d="M22100 15961 l0 -851 195 0 195 0 0 240 0 240 193 0 193 0 133 -240
132 -240 221 0 c200 0 220 1 214 17 -4 9 -83 135 -177 280 -94 146 -169 266
-167 267 2 1 25 15 51 30 105 60 197 185 233 316 8 30 17 100 21 155 19 312
-136 528 -437 611 -57 16 -121 18 -532 22 l-468 3 0 -850z m807 519 c123 -16
213 -78 244 -167 18 -51 15 -178 -4 -224 -38 -87 -115 -140 -228 -159 -35 -5
-146 -10 -246 -10 l-183 0 0 285 0 285 173 0 c94 0 205 -5 244 -10z"/>
<path d="M9435 14420 c-246 -39 -420 -168 -476 -352 -17 -56 -21 -88 -18 -176
4 -97 7 -114 37 -174 40 -82 122 -160 213 -204 35 -18 125 -51 199 -74 271
-84 319 -102 364 -132 55 -36 79 -77 79 -136 0 -113 -139 -179 -319 -152 -153
23 -314 93 -451 196 l-73 54 -79 -159 -80 -159 22 -20 c121 -109 362 -213 567
-243 105 -15 333 -6 415 16 101 28 200 81 268 145 103 96 147 202 147 355 0
146 -37 233 -140 328 -77 71 -158 110 -385 182 -282 90 -343 124 -365 206 -12
44 3 91 38 122 94 84 351 50 605 -80 48 -25 90 -44 92 -42 8 8 145 310 145
319 0 5 -51 35 -113 65 -162 80 -309 115 -492 120 -77 2 -167 0 -200 -5z"/>
<path d="M11105 14403 c-225 -47 -430 -187 -553 -376 -150 -230 -181 -537 -81
-799 103 -266 344 -468 641 -535 97 -21 327 -22 423 -1 277 62 499 232 616
474 64 132 82 216 82 384 0 174 -19 258 -88 395 -121 240 -338 403 -609 459
-100 21 -333 20 -431 -1z m335 -334 c198 -45 362 -232 391 -444 32 -232 -90
-464 -295 -561 -69 -33 -89 -38 -175 -42 -151 -7 -258 31 -366 130 -73 66
-129 152 -156 237 -29 91 -29 231 0 322 52 165 201 310 362 353 64 17 176 20
239 5z"/>
<path d="M13040 14406 c-198 -46 -340 -125 -470 -263 -106 -112 -163 -215
-207 -374 -14 -50 -18 -100 -17 -224 1 -144 3 -169 28 -250 71 -235 216 -411
426 -519 106 -55 188 -80 310 -96 268 -35 540 56 770 258 l45 40 -45 48 c-24
27 -77 84 -116 127 l-73 79 -63 -51 c-244 -198 -532 -199 -729 -2 -114 114
-166 251 -156 411 15 234 163 418 382 475 168 43 357 -13 503 -149 35 -33 66
-55 71 -50 4 5 56 68 114 140 l107 132 -48 44 c-93 87 -216 156 -362 203 -76
25 -102 28 -250 31 -109 2 -184 -1 -220 -10z"/>
<path d="M14160 13550 l0 -850 195 0 195 0 0 850 0 850 -195 0 -195 0 0 -850z"/>
<path d="M14940 13550 l0 -850 660 0 660 0 0 165 0 165 -465 0 -465 0 0 180 0
180 405 0 405 0 0 165 0 165 -405 0 -405 0 0 175 0 175 450 0 450 0 0 165 0
165 -645 0 -645 0 0 -850z"/>
<path d="M16410 14230 l0 -170 255 0 255 0 0 -680 0 -680 195 0 195 0 0 680 0
680 260 0 260 0 0 170 0 170 -710 0 -710 0 0 -170z"/>
<path d="M17860 14390 c0 -5 140 -267 310 -582 l310 -572 0 -268 0 -268 195 0
195 0 0 270 0 270 310 577 c171 317 310 578 310 580 0 2 -89 3 -198 3 l-198 0
-208 -375 c-115 -207 -210 -374 -211 -373 -2 2 -98 171 -214 376 l-212 372
-195 0 c-119 0 -194 -4 -194 -10z"/>
<path d="M0 9120 l0 -70 12005 0 12005 0 0 70 0 70 -12005 0 -12005 0 0 -70z"/>
<path d="M9058 5925 c-75 -12 -140 -25 -146 -29 -5 -3 -7 -99 -4 -246 l5 -240
-59 0 c-95 0 -231 -19 -297 -41 -229 -76 -357 -283 -357 -576 1 -242 85 -410
243 -483 151 -70 315 -57 445 36 22 16 22 16 22 -26 l0 -43 46 7 c26 3 106 6
179 6 l132 0 -1 598 c-1 328 1 701 4 827 l5 230 -40 2 c-22 1 -101 -9 -177
-22z m-148 -1063 l0 -288 -45 -22 c-54 -26 -132 -29 -175 -7 -33 17 -73 66
-89 108 -23 61 -33 164 -22 241 25 175 106 253 269 255 l62 1 0 -288z"/>
<path d="M11415 5925 c-77 -13 -143 -24 -147 -24 -4 -1 -5 -111 -1 -246 l6
-245 -64 0 c-96 0 -226 -18 -297 -41 -76 -25 -169 -86 -218 -142 -50 -57 -101
-167 -120 -257 -23 -111 -15 -322 16 -413 63 -185 209 -290 405 -290 96 -1
167 21 231 69 l44 34 -2 -42 c-3 -42 -3 -43 30 -42 17 0 98 1 180 2 l147 2 0
830 0 830 -35 -1 c-19 -1 -98 -12 -175 -24z m-145 -1019 c0 -134 -3 -265 -7
-291 -6 -43 -9 -49 -47 -66 -58 -26 -134 -25 -177 4 -76 51 -103 126 -103 277
1 133 24 201 89 258 54 47 90 60 178 61 l67 1 0 -244z"/>
<path d="M20380 5924 c-79 -13 -148 -28 -153 -33 -5 -5 -3 -71 4 -147 8 -91
13 -367 14 -799 l1 -660 180 3 c98 2 182 7 186 10 4 4 3 104 -3 222 -5 118 -9
487 -8 820 l1 605 -38 2 c-22 1 -104 -10 -184 -23z"/>
<path d="M3332 5900 c-74 -10 -137 -22 -142 -26 -5 -5 -6 -78 -3 -161 6 -147
7 -153 27 -152 12 0 91 10 176 23 l155 22 3 157 3 157 -43 -1 c-24 -1 -103 -9
-176 -19z"/>
<path d="M7810 5899 c-74 -9 -138 -18 -143 -18 -4 -1 -6 -72 -5 -158 l3 -158
35 1 c70 1 315 38 322 48 4 6 8 77 8 159 l0 147 -42 -1 c-24 -1 -104 -10 -178
-20z"/>
<path d="M16224 5900 c-72 -9 -136 -20 -142 -24 -7 -4 -9 -57 -6 -159 4 -126
7 -153 20 -155 8 -2 57 3 107 12 51 8 121 18 157 22 36 4 68 12 72 18 4 6 8
77 8 159 l0 147 -42 -1 c-24 -1 -102 -9 -174 -19z"/>
<path d="M678 5763 l-127 -4 5 -302 c11 -801 14 -833 71 -939 58 -108 176
-194 318 -234 93 -25 303 -30 406 -9 207 41 338 156 385 336 14 55 17 144 21
612 l5 548 -169 -7 c-92 -4 -169 -8 -171 -9 -1 -1 3 -131 9 -289 6 -158 9
-392 7 -519 -6 -265 -14 -303 -78 -361 -109 -98 -304 -64 -370 64 -40 77 -44
136 -44 635 l-1 480 -70 1 c-38 0 -127 -1 -197 -3z"/>
<path d="M12594 5763 l-121 -4 5 -732 c2 -403 7 -735 11 -738 3 -3 78 -3 165
-1 l159 4 -7 117 c-3 64 -10 256 -16 426 -5 171 -12 339 -15 375 l-6 65 55
-90 c79 -129 599 -893 611 -898 6 -2 74 -1 153 1 l142 4 0 740 0 739 -157 -7
c-87 -3 -160 -8 -162 -10 -1 -1 2 -141 8 -311 6 -169 13 -371 16 -448 l5 -140
-33 55 c-19 30 -154 235 -302 455 l-268 400 -61 1 c-34 0 -115 -1 -182 -3z"/>
<path d="M2170 5404 c-69 -12 -145 -27 -170 -31 -53 -9 -50 16 -31 -288 6
-110 11 -332 10 -495 l-1 -295 188 0 189 0 -5 165 c-3 91 -5 268 -5 394 l0
228 48 25 c26 14 68 28 92 31 40 4 48 1 79 -30 51 -51 57 -99 60 -481 l3 -332
184 0 184 0 -3 165 c-14 659 -18 733 -40 790 -23 60 -75 116 -132 146 -23 12
-65 19 -126 22 -108 5 -167 -9 -278 -68 l-75 -40 -3 58 c-4 69 2 68 -168 36z"/>
<path d="M3351 5397 l-174 -31 9 -105 c5 -58 9 -302 9 -541 l0 -435 185 3
c102 2 189 7 193 11 4 4 3 111 -4 237 -6 126 -9 378 -7 559 3 324 3 330 -17
332 -11 1 -98 -13 -194 -30z"/>
<path d="M6220 5418 c-25 -6 -101 -20 -170 -32 l-125 -21 3 -35 c1 -19 5 -262
8 -540 l4 -505 183 4 c100 1 186 6 190 10 4 5 3 99 -3 211 -13 261 -13 410 1
465 22 87 91 122 176 90 34 -13 47 -15 53 -5 7 11 61 321 60 348 0 20 -114 15
-158 -7 -35 -18 -101 -82 -129 -127 -11 -16 -13 -7 -11 56 3 105 2 107 -82 88z"/>
<path d="M7830 5398 c-91 -16 -168 -33 -172 -37 -4 -3 -3 -49 3 -101 9 -76 12
-682 5 -925 l-1 -50 190 3 c105 2 193 7 197 11 4 4 3 81 -3 171 -5 91 -9 338
-8 550 1 212 1 391 0 398 -1 16 -18 15 -211 -20z"/>
<path d="M16240 5397 c-160 -29 -175 -34 -173 -52 16 -136 25 -530 17 -765 -7
-190 -7 -278 1 -286 7 -7 70 -9 195 -5 l185 6 -2 60 c-2 33 -4 287 -6 565 -2
495 -3 505 -22 507 -11 1 -99 -13 -195 -30z"/>
<path d="M18085 5405 c-66 -13 -142 -27 -170 -32 -49 -8 -50 -8 -48 -43 1 -19
7 -98 13 -175 5 -77 10 -303 10 -503 l0 -362 188 2 187 3 -2 155 c-1 85 -5
261 -8 391 l-7 237 63 31 c132 66 201 22 220 -143 4 -39 8 -207 9 -374 l0
-302 183 2 182 3 -3 375 c-2 206 -8 414 -13 461 -14 138 -52 205 -141 254 -45
25 -67 30 -144 33 -104 5 -154 -7 -269 -67 -38 -20 -73 -37 -76 -39 -3 -1 -4
20 -1 49 3 37 1 54 -9 60 -18 11 -22 11 -164 -16z"/>
<path d="M5115 5401 c-182 -52 -309 -188 -356 -381 -20 -80 -17 -289 5 -370
47 -175 171 -303 345 -356 81 -25 233 -36 338 -24 98 11 237 51 262 75 15 15
35 245 22 258 -4 4 -36 -6 -72 -22 -89 -42 -170 -61 -259 -61 -141 0 -231 47
-276 144 -42 89 -67 82 309 90 182 4 336 11 341 16 12 12 -10 254 -30 320 -50
169 -152 275 -307 316 -73 19 -247 17 -322 -5z m235 -234 c43 -28 68 -71 76
-129 6 -44 6 -45 -26 -52 -18 -3 -93 -6 -168 -6 l-135 0 6 41 c7 55 54 128 97
150 48 26 109 24 150 -4z"/>
<path d="M6940 5404 c-122 -33 -212 -101 -252 -192 -50 -113 -30 -267 44 -348
54 -59 105 -88 246 -140 130 -49 172 -80 172 -129 0 -128 -233 -139 -412 -19
-28 19 -55 31 -59 27 -8 -9 -28 -241 -22 -259 6 -18 170 -63 264 -74 90 -10
249 0 324 21 68 19 155 71 195 117 56 63 80 134 80 235 -1 184 -69 259 -315
351 -170 63 -203 93 -171 155 21 40 70 55 162 49 59 -4 89 -12 149 -42 42 -21
81 -36 88 -33 8 2 16 46 22 121 12 138 20 127 -113 156 -108 24 -319 26 -402
4z"/>
<path d="M9795 5414 c-67 -10 -241 -57 -252 -67 -15 -15 -22 -245 -8 -251 6
-2 56 12 111 30 108 36 220 53 297 44 56 -7 97 -41 100 -85 l2 -29 -120 -18
c-278 -42 -418 -115 -487 -256 -29 -59 -32 -74 -31 -151 1 -118 28 -188 102
-262 76 -76 144 -102 266 -101 101 0 174 21 243 72 l41 29 3 -42 3 -42 170 3
c94 2 173 7 177 10 4 4 2 81 -3 172 -6 91 -7 257 -4 370 9 315 -12 413 -107
494 -68 59 -146 78 -323 81 -82 2 -163 1 -180 -1z m255 -707 l0 -123 -35 -17
c-94 -45 -179 -41 -226 9 -35 37 -35 121 1 160 33 36 98 64 184 79 39 7 72 14
74 14 1 1 2 -54 2 -122z"/>
<path d="M14242 5406 c-40 -8 -103 -24 -141 -35 -66 -20 -69 -22 -75 -58 -9
-55 -7 -211 2 -217 4 -2 53 11 108 29 107 37 219 54 298 44 39 -4 55 -12 78
-38 17 -19 28 -41 26 -54 -3 -19 -15 -23 -113 -38 -155 -23 -228 -43 -322 -89
-141 -70 -203 -166 -203 -319 0 -96 20 -163 69 -227 72 -95 167 -138 306 -137
87 1 165 24 230 68 20 14 38 25 40 25 2 0 5 -17 7 -37 l3 -38 170 3 c94 2 173
7 176 10 3 4 2 201 -1 437 -8 496 -8 494 -94 581 -78 77 -140 96 -336 100
-103 2 -179 -1 -228 -10z m308 -696 l0 -120 -40 -20 c-102 -52 -194 -45 -237
19 -27 39 -29 80 -8 121 32 62 99 91 278 119 4 0 7 -53 7 -119z"/>
<path d="M15446 5404 c-143 -35 -263 -126 -329 -252 -54 -102 -71 -178 -70
-317 0 -104 3 -131 27 -200 60 -177 169 -282 346 -336 152 -47 478 -22 501 39
12 32 12 249 -1 257 -6 4 -25 -3 -43 -13 -56 -35 -144 -55 -209 -48 -118 12
-195 76 -230 190 -44 146 -2 325 94 395 84 62 206 62 303 0 26 -16 52 -28 59
-26 6 2 18 58 27 133 15 114 15 130 2 141 -9 6 -55 21 -103 32 -104 25 -283
27 -374 5z"/>
<path d="M17003 5405 c-269 -59 -406 -273 -390 -610 9 -184 46 -289 138 -390
90 -97 209 -138 409 -138 255 0 409 75 498 240 49 93 66 177 66 338 0 210 -37
328 -139 434 -96 101 -214 141 -410 140 -60 0 -138 -7 -172 -14z m233 -224
c80 -36 111 -110 121 -281 9 -177 -26 -327 -89 -372 -90 -64 -202 -29 -249 78
-27 61 -42 192 -34 306 10 161 40 228 117 267 52 26 81 26 134 2z"/>
<path d="M19407 5409 c-66 -10 -205 -46 -226 -58 -17 -11 -30 -245 -13 -255 5
-3 40 6 78 20 150 56 323 74 383 38 55 -32 67 -104 18 -104 -33 0 -188 -27
-262 -46 -149 -37 -274 -124 -318 -222 -32 -71 -36 -209 -8 -283 58 -154 176
-232 351 -231 92 0 167 22 235 67 20 14 38 25 40 25 2 0 5 -17 7 -37 l3 -38
170 3 c94 2 173 7 176 10 3 4 3 201 -1 437 -8 483 -8 486 -82 570 -49 55 -98
82 -187 101 -72 15 -270 17 -364 3z m283 -700 l0 -120 -56 -26 c-69 -32 -148
-36 -188 -10 -65 43 -71 134 -12 193 38 38 105 60 249 83 4 0 7 -53 7 -120z"/>
<path d="M3920 5400 c-36 -4 -106 -8 -157 -9 -50 0 -94 -5 -98 -11 -3 -5 61
-211 143 -457 82 -246 160 -486 173 -533 12 -47 27 -90 33 -96 8 -7 67 -9 186
-5 l175 6 33 100 c18 55 100 301 181 546 82 246 146 451 142 455 -3 5 -76 7
-161 4 l-154 -5 -8 -30 c-117 -486 -174 -695 -180 -669 -4 16 -45 182 -91 369
l-84 340 -34 1 c-19 1 -63 -2 -99 -6z"/>
<path d="M6232 3680 c-96 -16 -176 -31 -178 -33 -3 -3 1 -72 8 -153 8 -101 12
-361 13 -802 l0 -652 185 2 185 3 -2 55 c-1 30 -5 404 -8 830 -4 609 -8 775
-18 777 -6 1 -90 -11 -185 -27z"/>
<path d="M13165 3680 c-93 -16 -171 -29 -171 -29 -1 -1 1 -111 4 -244 l5 -244
-129 -6 c-205 -10 -317 -52 -425 -157 -106 -104 -159 -259 -159 -464 0 -333
175 -527 463 -514 75 3 102 9 147 32 30 15 65 37 78 48 l22 21 0 -41 0 -42
179 0 179 0 -5 528 c-3 290 0 662 5 827 9 287 7 318 -18 314 -3 -1 -81 -14
-175 -29z m-167 -1067 l-3 -286 -45 -24 c-62 -32 -143 -28 -193 10 -115 88
-127 390 -19 509 52 57 101 78 190 78 l72 0 -2 -287z"/>
<path d="M9163 3656 c-89 -11 -165 -25 -170 -29 -7 -8 -5 -307 2 -315 5 -6
337 46 345 54 11 12 17 285 7 302 -5 6 -11 11 -15 11 -4 -1 -80 -11 -169 -23z"/>
<path d="M16545 3656 c-88 -11 -165 -24 -172 -29 -8 -5 -10 -49 -6 -160 3 -83
7 -153 8 -155 5 -6 338 47 346 55 13 13 7 306 -6 308 -5 1 -82 -7 -170 -19z"/>
<path d="M7125 3638 c-2 -7 -16 -51 -30 -96 -15 -46 -42 -120 -61 -165 -19
-45 -34 -87 -34 -94 0 -11 27 -13 126 -11 l126 3 114 178 c63 98 114 183 114
188 0 15 -350 12 -355 -3z"/>
<path d="M20925 3540 c-197 -31 -320 -127 -375 -291 -18 -53 -21 -81 -18 -164
3 -85 8 -108 32 -155 55 -111 138 -172 368 -275 69 -31 144 -72 166 -91 95
-81 74 -197 -46 -255 -39 -20 -63 -23 -142 -23 -113 0 -209 30 -291 89 -80 57
-83 54 -91 -115 -4 -80 -5 -150 -3 -157 6 -17 56 -37 162 -64 114 -30 357 -33
468 -6 241 59 375 225 375 462 0 125 -39 225 -118 304 -57 57 -101 82 -263
150 -147 62 -200 92 -228 127 -42 53 -17 138 51 179 27 17 50 20 133 19 109 0
156 -14 253 -73 77 -48 79 -46 87 67 13 208 15 194 -29 215 -107 51 -349 79
-491 57z"/>
<path d="M464 3509 c-10 -17 -23 -263 -14 -273 5 -5 84 -7 176 -4 l167 5 -5
-599 -5 -598 193 0 c106 0 195 3 197 8 3 4 2 205 -2 447 -3 242 -5 509 -3 594
l3 154 165 -6 c127 -5 166 -4 169 6 2 6 6 72 10 145 l6 132 -525 0 c-368 0
-527 -3 -532 -11z"/>
<path d="M15338 3513 c-2 -5 -2 -338 0 -740 l3 -733 439 0 439 0 5 43 c3 23 7
89 8 147 l3 105 -25 -1 c-14 -1 -130 -5 -259 -9 l-234 -8 6 602 5 601 -193 0
c-107 0 -195 -3 -197 -7z"/>
<path d="M1889 3169 c-211 -31 -374 -181 -424 -390 -17 -72 -20 -260 -6 -335
26 -133 102 -258 201 -325 30 -21 93 -51 140 -66 80 -26 96 -28 255 -28 160 0
175 2 258 29 49 16 94 35 101 42 13 13 33 250 22 262 -3 3 -36 -9 -73 -26
-139 -64 -307 -79 -411 -37 -55 23 -126 102 -140 157 -6 23 -10 43 -9 45 2 1
153 6 337 10 l335 8 3 55 c8 122 -25 287 -78 389 -82 163 -281 244 -511 210z
m167 -249 c38 -24 74 -92 74 -142 l0 -35 -107 -6 c-167 -11 -223 -9 -223 6 0
27 31 113 48 132 59 69 140 86 208 45z"/>
<path d="M3070 3171 c-253 -37 -416 -189 -465 -433 -67 -338 92 -621 391 -694
102 -25 286 -23 387 3 43 12 80 23 82 25 2 2 7 63 11 134 5 95 4 133 -5 138
-6 4 -35 -4 -64 -19 -148 -72 -316 -41 -387 72 -78 122 -63 350 28 446 49 52
99 72 182 72 68 0 81 -4 141 -37 36 -20 70 -33 76 -30 13 9 38 262 27 272 -5
4 -45 17 -89 28 -91 24 -234 34 -315 23z"/>
<path d="M3870 3164 c-36 -8 -107 -21 -159 -29 -51 -7 -95 -16 -98 -19 -3 -3
0 -81 7 -173 7 -92 14 -332 14 -533 l1 -365 185 0 185 0 0 395 0 395 50 27
c65 36 123 37 162 4 52 -44 56 -70 62 -461 l6 -360 174 -3 c119 -2 178 1 187
9 9 8 12 23 8 48 -3 20 -9 216 -13 436 -9 449 -13 470 -82 549 -100 113 -283
122 -474 23 l-84 -44 -3 56 c-3 54 -4 56 -33 58 -16 1 -59 -5 -95 -13z"/>
<path d="M9146 3149 c-88 -16 -162 -31 -164 -34 -2 -2 2 -84 8 -182 9 -125 11
-285 6 -536 l-6 -357 192 2 193 3 -2 80 c-1 44 -3 298 -5 565 l-3 485 -30 2
c-16 0 -102 -12 -189 -28z"/>
<path d="M9990 3169 c-137 -18 -243 -71 -329 -165 -61 -66 -94 -133 -122 -244
-18 -71 -21 -103 -16 -200 6 -126 20 -180 68 -271 83 -155 238 -245 459 -264
84 -8 217 8 295 33 l50 17 7 130 c5 78 4 133 -2 139 -6 6 -29 0 -63 -17 -126
-64 -287 -49 -363 35 -86 93 -105 282 -42 414 65 140 238 183 380 95 63 -39
74 -30 81 74 4 44 9 101 13 127 l7 46 -66 21 c-121 37 -231 46 -357 30z"/>
<path d="M13954 3170 c-202 -30 -345 -149 -415 -347 -30 -84 -38 -292 -15
-396 36 -161 125 -279 258 -342 112 -53 197 -68 368 -62 125 3 156 8 228 32
46 16 90 34 97 41 13 14 33 250 21 261 -3 3 -36 -8 -73 -25 -136 -62 -309 -79
-404 -39 -72 30 -134 103 -153 180 l-6 27 97 1 c54 1 206 4 338 8 l240 6 -1
115 c-3 200 -55 343 -160 440 -96 87 -252 125 -420 100z m162 -249 c37 -23 74
-94 74 -143 l0 -35 -107 -6 c-167 -11 -223 -9 -223 6 0 48 33 118 75 156 40
37 49 41 97 41 34 0 64 -7 84 -19z"/>
<path d="M16526 3149 c-87 -15 -161 -31 -163 -33 -3 -3 0 -94 7 -203 9 -135
10 -305 6 -536 l-8 -337 194 2 193 3 -2 70 c-1 39 -4 293 -5 565 l-3 495 -30
2 c-16 1 -102 -12 -189 -28z"/>
<path d="M17106 3150 c-87 -16 -163 -33 -168 -38 -5 -5 -5 -46 2 -108 6 -54
14 -294 17 -531 l6 -433 183 0 c100 0 185 4 188 9 3 5 0 181 -6 391 l-12 383
28 22 c66 53 157 57 195 8 42 -53 45 -82 46 -453 l0 -355 185 0 185 0 0 60 c0
33 -4 214 -9 402 l-8 343 53 25 c77 35 123 33 164 -8 51 -51 56 -96 54 -482
l-2 -340 178 -3 c100 -1 182 2 189 7 8 7 9 51 5 153 -4 78 -7 272 -8 430 -1
249 -3 294 -20 346 -26 84 -61 126 -139 164 -60 30 -74 33 -156 32 -111 0
-202 -26 -299 -84 l-69 -42 -15 22 c-60 86 -174 123 -303 100 -61 -11 -156
-52 -212 -91 -14 -11 -29 -19 -32 -19 -3 0 -6 26 -8 58 -4 71 3 70 -212 32z"/>
<path d="M23140 3160 c-47 -10 -119 -24 -160 -31 -75 -14 -75 -14 -72 -44 1
-16 5 -258 8 -538 l6 -507 187 2 186 3 -5 175 c-3 96 -5 252 -5 345 0 158 2
172 22 206 36 57 105 76 166 44 15 -8 33 -12 40 -9 10 4 69 308 67 351 0 19
-62 26 -111 13 -63 -17 -105 -47 -151 -110 l-40 -55 3 85 4 85 -30 1 c-16 1
-68 -6 -115 -16z"/>
<path d="M5220 3163 c-40 -7 -122 -34 -165 -56 -154 -76 -242 -239 -252 -467
-9 -197 33 -358 124 -468 45 -55 94 -87 180 -120 90 -33 307 -43 423 -18 197
42 312 154 367 356 24 91 24 329 -1 419 -52 190 -165 305 -338 346 -59 14
-273 19 -338 8z m238 -250 c24 -19 46 -51 61 -89 23 -54 25 -73 25 -214 1
-186 -14 -249 -73 -313 -35 -37 -43 -41 -97 -45 -50 -3 -64 0 -94 20 -80 54
-104 134 -104 338 1 146 11 203 50 262 53 82 158 100 232 41z"/>
<path d="M7010 3163 c-61 -10 -155 -48 -210 -84 -128 -86 -195 -229 -207 -443
-14 -255 80 -476 236 -556 165 -84 481 -81 642 6 166 91 248 284 236 554 -3
63 -12 141 -21 173 -51 187 -163 301 -337 342 -60 14 -273 19 -339 8z m197
-224 c46 -17 92 -69 109 -124 21 -68 30 -274 15 -360 -24 -137 -72 -195 -166
-203 -91 -7 -151 43 -180 153 -19 72 -22 313 -4 377 35 131 127 195 226 157z"/>
<path d="M10810 3151 c-47 -11 -105 -26 -130 -33 l-45 -14 -8 -69 c-4 -39 -6
-97 -5 -130 3 -70 -3 -69 118 -27 105 37 225 56 293 47 59 -9 107 -48 107 -88
0 -28 2 -27 -130 -47 -262 -40 -414 -119 -477 -248 -25 -51 -28 -67 -28 -162
0 -95 3 -111 28 -162 36 -73 98 -134 167 -167 43 -19 76 -26 146 -29 109 -5
178 12 253 62 l51 35 0 -40 0 -39 174 0 c96 0 177 3 179 8 2 4 1 203 -2 442
l-6 435 -33 68 c-38 77 -92 123 -177 153 -78 27 -362 30 -475 5z m340 -691 l0
-120 -42 -21 c-57 -29 -154 -37 -195 -16 -39 21 -67 78 -59 122 14 70 72 113
192 139 113 24 104 33 104 -104z"/>
<path d="M19090 3163 c-14 -2 -73 -16 -133 -30 -124 -30 -113 -15 -121 -175
-4 -71 -2 -108 5 -110 6 -2 54 11 108 29 116 39 233 58 296 48 53 -7 100 -45
109 -87 6 -24 3 -28 -26 -32 -18 -3 -78 -13 -133 -22 -309 -50 -461 -164 -481
-360 -17 -157 59 -302 193 -370 54 -27 65 -29 174 -29 l117 0 80 41 81 41 3
-31 3 -31 180 0 180 0 -2 25 c-2 14 -6 214 -11 445 -7 408 -8 421 -30 470 -63
137 -175 186 -427 183 -77 0 -151 -3 -165 -5z m270 -704 l0 -120 -56 -26 c-46
-21 -67 -24 -116 -21 -53 4 -65 9 -89 36 -57 63 -30 160 54 201 38 18 147 47
195 50 9 1 12 -29 12 -120z"/>
<path d="M8240 3149 c-47 -3 -105 -12 -130 -19 -113 -31 -215 -111 -259 -205
-29 -60 -40 -190 -22 -262 17 -67 72 -146 128 -184 26 -18 50 -33 52 -35 1 -2
-27 -57 -63 -123 -36 -66 -66 -127 -66 -136 0 -8 17 -27 38 -42 l38 -28 -51
-50 c-69 -68 -95 -126 -95 -212 0 -86 29 -152 92 -210 94 -86 187 -113 388
-113 224 0 354 43 461 149 71 71 99 141 99 245 0 101 -22 160 -84 221 -65 65
-139 95 -328 134 -78 16 -155 34 -170 39 -25 10 -26 13 -15 41 11 29 14 31 67
31 184 1 348 87 412 217 28 58 32 75 32 147 0 60 -6 93 -21 127 l-21 46 68 -5
c37 -2 70 -1 73 4 3 5 7 58 8 118 l4 109 -275 1 c-151 1 -313 -2 -360 -5z
m125 -223 c50 -33 75 -132 55 -215 -21 -87 -82 -130 -156 -110 -105 29 -137
225 -51 306 18 17 39 33 47 36 22 9 79 0 105 -17z m-52 -950 c150 -40 187 -64
187 -127 0 -76 -64 -119 -178 -119 -78 0 -142 27 -176 73 -30 41 -28 120 5
169 13 21 26 38 29 38 3 0 63 -15 133 -34z"/>
<path d="M21793 3153 c-64 -2 -105 -8 -111 -16 -5 -7 -6 -59 -1 -132 4 -66 8
-244 8 -396 1 -164 6 -299 12 -333 33 -162 161 -256 349 -256 96 0 159 19 238
70 l62 40 0 -45 0 -45 183 2 182 3 -3 25 c-2 14 -5 262 -6 552 -2 291 -5 531
-8 534 -8 7 -343 -7 -356 -15 -6 -4 -7 -123 -1 -336 5 -181 5 -359 1 -394 l-7
-63 -54 -29 c-100 -53 -181 -28 -213 66 -15 43 -17 98 -18 413 l0 362 -77 -2
c-43 -1 -124 -4 -180 -5z"/>
<path d="M7708 1467 l-97 -20 6 -223 6 -224 -110 0 c-192 0 -317 -45 -417
-150 -94 -98 -136 -212 -136 -370 0 -206 86 -361 240 -434 60 -29 73 -31 171
-31 103 0 109 1 177 36 l71 37 -5 -28 c-4 -15 -1 -30 4 -34 6 -3 55 -3 109 0
l98 7 -1 725 c-1 402 -5 727 -10 728 -5 0 -53 -8 -106 -19z m-125 -623 l37 -7
0 -289 0 -288 -46 -30 c-140 -88 -299 -52 -369 84 -28 56 -30 67 -30 170 0
101 3 117 28 171 15 33 42 75 60 93 70 73 207 114 320 96z"/>
<path d="M15685 1466 l-100 -21 2 -55 c2 -30 4 -350 6 -710 l3 -655 32 1 c18
0 65 1 106 2 l73 2 -5 353 -5 353 50 32 c77 50 142 68 225 63 37 -2 87 -47
111 -100 18 -42 20 -70 22 -373 0 -180 3 -330 6 -332 3 -3 50 -2 104 2 l100 7
-4 135 c-18 687 -16 642 -38 685 -47 90 -123 135 -238 143 -86 5 -168 -14
-266 -63 l-71 -36 3 292 c2 178 -1 294 -7 295 -5 1 -54 -8 -109 -20z"/>
<path d="M4760 1340 c-78 -12 -163 -46 -213 -84 -148 -113 -168 -355 -39 -490
55 -57 120 -96 289 -171 123 -54 160 -76 192 -110 86 -93 55 -227 -67 -287
-39 -19 -63 -23 -142 -23 -111 0 -178 18 -263 69 -32 19 -64 33 -71 30 -9 -3
-15 -34 -19 -92 -7 -104 -2 -110 101 -142 100 -31 198 -43 302 -37 214 12 351
97 411 255 30 82 24 225 -13 297 -49 95 -113 139 -341 239 -90 39 -173 83
-196 103 -105 90 -62 226 86 269 100 29 196 15 370 -57 18 -7 35 -11 37 -8 10
10 24 174 16 183 -4 4 -49 19 -98 32 -102 26 -259 37 -342 24z"/>
<path d="M578 1313 c-2 -5 -2 -298 0 -651 l4 -644 106 7 c59 4 110 10 113 14
4 3 3 130 -3 281 -5 151 -6 438 -3 638 l7 362 -110 0 c-61 0 -112 -3 -114 -7z"/>
<path d="M1056 673 l2 -648 383 4 c211 2 387 6 391 10 3 3 8 40 10 81 l3 75
-288 -4 -287 -4 0 212 0 211 254 0 253 0 7 38 c3 20 6 58 6 85 l0 47 -260 0
-260 0 0 174 c0 96 3 182 6 191 6 14 32 15 274 9 156 -4 269 -3 272 2 3 5 9
44 13 87 l7 77 -393 0 -394 0 1 -647z"/>
<path d="M2007 1313 c-2 -5 1 -93 6 -198 4 -104 6 -394 3 -643 l-6 -452 388 6
c213 4 389 8 391 10 2 2 6 39 9 83 l4 79 -284 -6 -285 -5 -5 119 c-3 65 -3
161 0 212 l4 92 254 0 254 0 0 33 c0 17 3 56 6 85 l7 52 -262 0 -261 0 0 190
0 191 275 -7 c231 -6 275 -5 279 7 2 8 7 47 10 87 l6 72 -394 0 c-217 0 -396
-3 -399 -7z"/>
<path d="M2970 1313 c-1 -5 -1 -296 -1 -648 l0 -640 388 4 c213 2 389 4 390 5
1 0 3 37 5 81 l3 80 -287 -4 -288 -4 0 211 0 212 258 2 257 3 6 75 c3 41 4 78
2 83 -2 4 -121 7 -264 7 l-259 0 0 63 c0 34 3 120 7 190 l6 128 273 -7 272 -7
6 44 c3 24 7 62 8 84 l3 40 -392 3 c-216 1 -393 -1 -393 -5z"/>
<path d="M11154 1305 c-4 -8 -3 -27 1 -43 4 -15 6 -301 6 -636 l-1 -609 282 6
c301 5 350 12 446 61 151 76 226 254 178 420 -30 101 -130 185 -244 202 l-42
6 58 28 c109 52 172 152 172 276 0 146 -84 249 -235 289 -86 22 -613 22 -621
0z m485 -146 c122 -26 187 -125 151 -233 -35 -108 -140 -156 -342 -156 l-78 0
0 194 c0 146 3 196 13 199 23 10 206 7 256 -4z m104 -578 c113 -55 147 -175
82 -287 -46 -79 -153 -113 -356 -114 l-86 0 -6 128 c-4 70 -7 167 -7 216 l0
88 163 -4 c144 -4 167 -6 210 -27z"/>
<path d="M5515 1235 l-80 -22 0 -116 0 -116 -65 -3 -65 -3 -3 -77 -3 -78 68 0
68 0 0 -317 c0 -236 3 -327 13 -355 17 -48 80 -104 134 -119 45 -12 232 -8
245 5 4 4 9 40 11 81 l4 74 -73 -6 c-102 -7 -118 6 -129 107 -11 92 -12 242
-3 414 l6 128 98 -4 97 -4 7 74 c4 40 4 76 1 80 -4 3 -52 5 -107 3 l-101 -3 4
141 3 141 -25 -1 c-14 -1 -61 -11 -105 -24z"/>
<path d="M10145 1235 l-80 -22 3 -116 3 -116 -68 -3 -68 -3 -3 -77 -3 -78 70
0 69 0 -2 -317 c-1 -239 2 -327 12 -355 17 -48 80 -104 134 -119 58 -15 237
-7 249 12 5 8 9 44 9 81 l0 66 -72 -5 c-63 -5 -76 -3 -98 15 -24 19 -25 26
-31 164 -3 78 -4 217 -1 307 l5 163 98 -4 98 -4 6 62 c11 102 16 98 -104 95
l-104 -3 5 141 4 141 -25 -1 c-14 -1 -62 -12 -106 -24z"/>
<path d="M8355 999 c-172 -25 -311 -162 -350 -346 -17 -81 -19 -222 -4 -295
35 -168 150 -290 314 -333 165 -43 455 5 469 78 11 52 14 157 6 162 -5 3 -28
-8 -51 -24 -124 -90 -312 -104 -420 -32 -70 47 -106 114 -124 228 l-7 43 324
2 323 3 -2 85 c-3 103 -17 168 -51 238 -31 64 -105 135 -168 163 -40 17 -159
41 -189 38 -5 -1 -37 -5 -70 -10z m166 -159 c21 -11 52 -39 68 -61 28 -38 58
-135 45 -148 -3 -3 -104 -8 -224 -10 l-218 -3 9 42 c20 87 70 154 139 184 51
22 133 20 181 -4z"/>
<path d="M13108 999 c-43 -5 -110 -20 -150 -32 l-73 -23 -7 -44 c-12 -65 -6
-115 12 -113 8 0 49 13 90 28 102 37 230 45 280 17 40 -21 70 -72 70 -118 l0
-31 -87 -12 c-248 -34 -383 -100 -446 -216 -18 -33 -22 -56 -22 -140 0 -89 3
-105 27 -150 34 -64 69 -97 138 -129 97 -45 264 -32 354 29 l36 24 0 -35 0
-35 103 7 c56 4 102 7 102 8 1 0 -2 174 -5 386 -5 361 -7 388 -26 430 -56 121
-192 172 -396 149z m222 -613 l0 -145 -29 -21 c-50 -35 -103 -52 -162 -52 -67
0 -113 21 -139 65 -66 107 -10 220 127 261 67 19 136 33 176 35 l27 1 0 -144z"/>
<path d="M15110 999 c-222 -32 -363 -198 -386 -452 -23 -255 110 -467 326
-523 117 -30 337 -2 386 48 16 17 30 188 16 188 -6 0 -33 -14 -59 -30 -122
-78 -262 -77 -356 1 -138 114 -138 410 -1 543 79 77 208 88 323 29 36 -18 63
-27 67 -22 3 6 8 45 11 88 l6 77 -44 17 c-99 36 -201 49 -289 36z"/>
<path d="M9403 985 c-29 -8 -81 -29 -115 -47 -35 -18 -66 -34 -70 -36 -5 -2
-8 17 -8 42 0 45 0 46 -32 45 -18 0 -67 -8 -108 -17 l-75 -17 2 -65 c1 -36 4
-245 7 -465 l6 -400 30 1 c16 0 64 1 105 2 l74 2 -6 353 -6 352 39 26 c66 43
104 60 157 69 93 14 152 -17 191 -100 20 -43 21 -61 21 -372 0 -180 3 -329 6
-332 3 -3 50 -2 104 2 l100 7 -4 135 c-18 688 -16 642 -38 685 -25 48 -75 96
-123 120 -47 24 -188 30 -257 10z"/>
<path d="M12575 985 c-42 -19 -58 -34 -90 -80 l-28 -40 6 58 c4 45 2 59 -8 64
-8 3 -56 -3 -107 -12 l-93 -16 3 -462 c2 -254 7 -465 11 -469 3 -4 51 -5 106
-1 l100 6 -4 301 c-3 336 1 370 53 422 40 40 76 50 124 36 21 -7 40 -8 45 -3
11 11 47 193 40 204 -7 12 -127 7 -158 -8z"/>
<path d="M14145 985 c-32 -9 -88 -31 -122 -50 -35 -19 -66 -35 -69 -35 -3 0
-4 19 -2 43 3 40 2 42 -27 44 -16 2 -66 -5 -110 -15 l-80 -17 2 -55 c1 -30 5
-240 9 -467 l7 -412 101 6 c55 3 104 8 107 12 3 3 2 74 -2 156 -4 83 -8 238
-8 345 l-1 195 48 32 c73 50 140 69 224 64 37 -2 87 -47 112 -101 20 -43 21
-63 23 -375 l2 -330 98 4 c54 1 101 6 104 10 3 3 3 173 -1 376 -6 298 -11 378
-23 413 -40 108 -121 162 -251 168 -51 2 -103 -2 -141 -11z"/>
<path d="M6047 983 l-77 -4 5 -322 c4 -177 11 -351 16 -386 13 -84 42 -142 93
-189 62 -57 125 -75 247 -70 92 3 104 6 179 45 l80 41 0 -40 0 -39 103 7 c56
4 102 7 102 8 0 0 -2 215 -5 476 l-5 475 -100 -3 c-55 -2 -103 -7 -106 -10 -3
-4 -2 -83 3 -177 5 -93 8 -252 5 -353 -4 -207 3 -191 -102 -243 -114 -55 -231
-33 -277 54 -23 41 -23 49 -25 387 l-1 345 -29 1 c-15 0 -63 -1 -106 -3z"/>
</g>
</svg>
